# xmcd
#
# Track frame offsets: 
#        150
#        20892
#        39489
#        58084
#        74778
#        93386
#        107024
#        125149
#        145085
#        165098
#        185071
#        206445
#        226296
#
# Disc length: 3243 seconds
#
# Revision: 3
# Processed by: cddbd v1.5.2PL0 Copyright (c) Steve Scherf et al.
# Submitted via: ExactAudioCopy v0.95b3
#
DISCID=bd0ca90d
DTITLE=Chris Brown - F.A.M.E.
DYEAR=2011
DGENRE=R&B
TTITLE0=Deuces [feat. Tyga and Kevin McCall]
TTITLE1=Up To You
TTITLE2=No BS [feat. Kevin McCall]
TTITLE3=Look At Me Now [feat. Lil Wayne and Busta Rhymes]
TTITLE4=She Ain't You
TTITLE5=Say It With Me
TTITLE6=Yeah 3X
TTITLE7=Next To You [feat. Justin Bieber]
TTITLE8=All Back
TTITLE9=Wet The Bed [feat. Ludacris]
TTITLE10=Oh My Love
TTITLE11=Should've Kissed You
TTITLE12=Beautiful People [feat. Benny Benassi]
EXTD=
EXTT0=
EXTT1=
EXTT2=
EXTT3=
EXTT4=
EXTT5=
EXTT6=
EXTT7=
EXTT8=
EXTT9=
EXTT10=
EXTT11=
EXTT12=
PLAYORDER=
